<?xml version="1.0" encoding="UTF-8"?>
<svg width="114px" height="41px" viewBox="0 0 114 41" version="1.1" xmlns="http://www.w3.org/2000/svg" xmlns:xlink="http://www.w3.org/1999/xlink">
    <!-- Generator: Sketch 53.2 (72643) - https://sketchapp.com -->
    <title>Group</title>
    <desc>Created with Sketch.</desc>
    <g id="Page-1" stroke="none" stroke-width="1" fill="none" fill-rule="evenodd">
        <g id="Artboard" transform="translate(-32.000000, -18.000000)" fill="#F0575D">
            <g id="Group" transform="translate(31.000000, 0.000000)">
                <path d="M59.0372547,19.0000344 C50.9445226,18.9850756 43.6403856,23.8486597 40.5333261,31.3211904 C37.4262667,38.7937212 39.1287408,47.4022314 44.8462875,53.1295515 C50.5638341,58.8568716 59.1694241,60.5740461 66.6472508,57.4797539 C74.1250775,54.3854616 79.0011296,47.0896421 78.9999927,38.9968964 C79.0045198,33.6979234 76.9038516,28.6141844 73.1601116,24.8640449 C69.4163716,21.1139054 64.3362278,19.0045576 59.0372547,19.0000344 Z M58.9957218,22 C67.9752791,22.0190386 75.406181,28.8825292 76,37.7058598 L67.5349383,37.7058598 L63.3737103,29.7209243 C63.1129264,29.2188025 62.5827784,28.9085037 62.0102508,28.9228833 C61.4377232,28.9372628 60.9243272,29.2737713 60.689875,29.7883314 L54.2013254,44 L50.9556245,38.3658879 C50.6904435,37.9077706 50.1962483,37.6247781 49.6607667,37.6244095 L42,37.6244095 C42.6336138,28.8358238 50.0486398,22.0190846 58.9957218,22 Z M59.0028615,56 C50.2412179,55.9813255 42.905854,49.4343064 42,40.8244667 L48.7673792,40.8244667 L53.0452786,48.2821897 C53.3105959,48.7443986 53.8065524,49.0304049 54.3443865,49.0313544 L54.4159232,49.0313544 C54.9785566,49.0047169 55.4783956,48.6682173 55.7093082,48.1606271 L62.1533412,34 L65.3267127,40.1120535 C65.5819626,40.6057447 66.0961765,40.9160229 66.6572968,40.9149319 L76,40.9149319 C75.0497283,49.486157 67.7303568,55.9821456 59.0028615,56 Z" id="Shape"></path>
                <text id="4" font-family="ProximaNova-Regular, Proxima Nova" font-size="60" font-weight="normal">
                    <tspan x="0" y="59">4</tspan>
                </text>
                <text id="4-copy" font-family="ProximaNova-Regular, Proxima Nova" font-size="60" font-weight="normal">
                    <tspan x="83" y="59">4</tspan>
                </text>
            </g>
        </g>
    </g>
</svg>